<svg width="18" height="21" viewBox="0 0 18 21" fill="none" xmlns="http://www.w3.org/2000/svg">
<path d="M7.25 0C7.66421 0 8 0.33579 8 0.75V3.25C8 3.66421 7.66421 4 7.25 4C6.83579 4 6.5 3.66421 6.5 3.25V0.75C6.5 0.33579 6.83579 0 7.25 0ZM2.46965 1.96981C2.76253 1.67691 3.23741 1.67689 3.53031 1.96977L5.28031 3.71965C5.57322 4.01253 5.57323 4.48741 5.28035 4.78031C4.98747 5.07322 4.51259 5.07323 4.21969 4.78035L2.46969 3.03047C2.17678 2.73759 2.17677 2.26271 2.46965 1.96981ZM12.0303 1.96979C12.3232 2.26269 12.3232 2.73756 12.0303 3.03045L10.2803 4.78045C9.9874 5.07335 9.5126 5.07335 9.2197 4.78045C8.9268 4.48756 8.9268 4.01269 9.2197 3.71979L10.9697 1.96979C11.2626 1.6769 11.7374 1.6769 12.0303 1.96979ZM0.5 6.75C0.5 6.33579 0.83579 6 1.25 6H3.75C4.16421 6 4.5 6.33579 4.5 6.75C4.5 7.16421 4.16421 7.5 3.75 7.5H1.25C0.83579 7.5 0.5 7.16421 0.5 6.75ZM6.5 7.48706C6.5 6.36019 7.82176 5.75227 8.6773 6.48562L17.1384 13.7379C18.0484 14.518 17.5304 16.0094 16.3327 16.0573L12.4927 16.2109C12.0801 16.2274 11.6918 16.4104 11.4165 16.7181L8.8019 19.6403C7.99462 20.5426 6.5 19.9715 6.5 18.7608V7.48706Z" fill="white"/>
</svg>
