<svg width="24" height="24" viewBox="0 0 24 24" fill="none" xmlns="http://www.w3.org/2000/svg">
<path d="M12 11.5298C9.24 11.5298 7 13.7698 7 16.5298C7 17.2698 7.16 17.9698 7.46 18.5898C7.54 18.7698 7.63 18.9398 7.73 19.0998C8.59 20.5498 10.18 21.5298 12 21.5298C13.82 21.5298 15.41 20.5498 16.27 19.0998C16.37 18.9398 16.46 18.7698 16.54 18.5898C16.84 17.9698 17 17.2698 17 16.5298C17 13.7698 14.76 11.5298 12 11.5298ZM14.07 16.0998L11.94 18.0698C11.8 18.1998 11.61 18.2698 11.43 18.2698C11.24 18.2698 11.05 18.1998 10.9 18.0498L9.91 17.0598C9.62 16.7698 9.62 16.2898 9.91 15.9998C10.2 15.7098 10.68 15.7098 10.97 15.9998L11.45 16.4798L13.05 14.9998C13.36 14.7198 13.83 14.7398 14.11 15.0398C14.39 15.3398 14.37 15.8098 14.07 16.0998Z" fill="white"/>
<path d="M20.2001 17.07C19.8401 17.39 19.4501 17.66 19.0301 17.88C18.6701 18.06 18.3101 17.71 18.3701 17.31C18.4101 17.02 18.4301 16.72 18.4301 16.41C18.4301 12.83 15.5101 9.91003 11.9301 9.91003C8.35007 9.91003 5.43007 12.83 5.43007 16.41C5.43007 16.87 5.48007 17.31 5.57007 17.74C5.64007 18.09 5.37007 18.44 5.02007 18.35C1.07007 17.39 1.05007 11.31 5.47007 11H5.52007C2.31007 2.07003 15.8501 -1.49997 17.4001 7.88003C21.7301 8.43003 23.4801 14.2 20.2001 17.07Z" fill="white"/>
</svg>
