<svg xmlns="http://www.w3.org/2000/svg" width="55" height="55" viewBox="0 0 55 55" fill="none">
  <path opacity="0.4" d="M46.9785 23.3522H40.3556C34.9243 23.3522 30.5014 18.9293 30.5014 13.4981V6.87516C30.5014 5.61475 29.4702 4.5835 28.2098 4.5835H18.4931C11.4348 4.5835 5.72852 9.16683 5.72852 17.3481V37.6522C5.72852 45.8335 11.4348 50.4168 18.4931 50.4168H36.5056C43.5639 50.4168 49.2702 45.8335 49.2702 37.6522V25.6439C49.2702 24.3835 48.2389 23.3522 46.9785 23.3522Z" fill="#FF3838"/>
  <path d="M36.2092 5.06471C35.2697 4.12513 33.6426 4.76679 33.6426 6.07304V14.071C33.6426 17.4168 36.4842 20.1897 39.9447 20.1897C42.1217 20.2126 45.1467 20.2126 47.7363 20.2126C49.0426 20.2126 49.7301 18.6772 48.8134 17.7605C45.5134 14.4376 39.6009 8.45638 36.2092 5.06471Z" fill="#FF3838"/>
  <path d="M28.1411 33.7333C27.4766 33.0688 26.3766 33.0688 25.712 33.7333L24.062 35.3833V25.7812C24.062 24.8417 23.2828 24.0625 22.3432 24.0625C21.4036 24.0625 20.6245 24.8417 20.6245 25.7812V35.3833L18.9745 33.7333C18.3099 33.0688 17.2099 33.0688 16.5453 33.7333C15.8807 34.3979 15.8807 35.4979 16.5453 36.1625L21.1286 40.7458C21.1516 40.7688 21.1745 40.7687 21.1745 40.7917C21.312 40.9292 21.4953 41.0438 21.6786 41.1354C21.9078 41.2042 22.1141 41.25 22.3432 41.25C22.5724 41.25 22.7786 41.2042 22.9849 41.1125C23.1911 41.0208 23.3745 40.9063 23.5578 40.7458L28.1411 36.1625C28.8057 35.4979 28.8057 34.3979 28.1411 33.7333Z" fill="#F7DFE4"/>
</svg>