<svg xmlns="http://www.w3.org/2000/svg" width="152" height="108" viewBox="0 0 152 108" fill="none">
  <path d="M121.705 0H29.3812C25.1321 0 21.6875 3.44455 21.6875 7.69362V100.017C21.6875 104.266 25.1321 107.711 29.3812 107.711H121.705C125.954 107.711 129.399 104.266 129.399 100.017V7.69362C129.399 3.44455 125.954 0 121.705 0Z" fill="#EAECF0"/>
  <g filter="url(#filter0_d_1766_6398)">
    <path d="M109.387 7.69336H5.52261C3.39806 7.69336 1.67578 9.41563 1.67578 11.5402V30.7742C1.67578 32.8987 3.39806 34.621 5.52261 34.621H109.387C111.511 34.621 113.234 32.8987 113.234 30.7742V11.5402C113.234 9.41563 111.511 7.69336 109.387 7.69336Z" fill="white"/>
  </g>
  <path d="M54.7647 13.8484H34.7612C33.4865 13.8484 32.4531 14.8818 32.4531 16.1565C32.4531 17.4312 33.4865 18.4646 34.7612 18.4646H54.7647C56.0394 18.4646 57.0728 17.4312 57.0728 16.1565C57.0728 14.8818 56.0394 13.8484 54.7647 13.8484Z" fill="#D0D5DD"/>
  <path d="M68.6133 23.8499H34.7612C33.4865 23.8499 32.4531 24.8832 32.4531 26.1579C32.4531 27.4327 33.4865 28.466 34.7612 28.466H68.6133C69.888 28.466 70.9214 27.4327 70.9214 26.1579C70.9214 24.8832 69.888 23.8499 68.6133 23.8499Z" fill="#EAECF0"/>
  <path d="M22.453 10.0022H7.83511C5.71056 10.0022 3.98828 11.7245 3.98828 13.849V28.4669C3.98828 30.5914 5.71056 32.3137 7.83511 32.3137H22.453C24.5776 32.3137 26.2999 30.5914 26.2999 28.4669V13.849C26.2999 11.7245 24.5776 10.0022 22.453 10.0022Z" fill="#98A2B3"/>
  <path d="M13.392 23.6817H14.9307L14.9477 23.0893C14.9477 22.3107 15.4385 22.1076 16.1325 21.8876C16.8286 21.6895 17.4414 21.2702 17.878 20.6931C18.3147 20.1159 18.5516 19.4123 18.5529 18.6885C18.5682 18.2467 18.4915 17.8064 18.3278 17.3957C18.1641 16.985 17.9169 16.6127 17.6019 16.3025C17.2869 15.9922 16.9109 15.7508 16.4977 15.5933C16.0845 15.4359 15.6432 15.366 15.2016 15.388C14.7349 15.3778 14.271 15.4625 13.838 15.637C13.4051 15.8115 13.0121 16.0721 12.6829 16.4031C12.3536 16.734 12.0951 17.1284 11.9229 17.5622C11.7506 17.9961 11.6683 18.4604 11.6809 18.927H13.272C13.266 18.6694 13.3114 18.4131 13.4057 18.1733C13.4999 17.9334 13.6411 17.7148 13.821 17.5302C14.0008 17.3457 14.2157 17.1988 14.4531 17.0984C14.6904 16.9979 14.9454 16.9458 15.2031 16.9452C15.4355 16.9317 15.6681 16.9684 15.885 17.0528C16.102 17.1372 16.2982 17.2674 16.4604 17.4344C16.6226 17.6014 16.7469 17.8013 16.825 18.0207C16.903 18.24 16.9329 18.4736 16.9126 18.7055C16.9024 19.0808 16.7719 19.443 16.5403 19.7386C16.3087 20.0342 15.9883 20.2475 15.6263 20.3473L15.0677 20.5689C14.5208 20.7006 14.0434 21.0329 13.7299 21.5C13.4165 21.9671 13.2898 22.5348 13.3751 23.0908L13.392 23.6817ZM14.1537 27.3393C14.3044 27.3446 14.4546 27.3197 14.5955 27.266C14.7363 27.2123 14.865 27.1309 14.9739 27.0266C15.0828 26.9223 15.1697 26.7972 15.2294 26.6588C15.2891 26.5204 15.3204 26.3714 15.3216 26.2206C15.3202 26.07 15.2887 25.9211 15.2289 25.7829C15.1691 25.6446 15.0822 25.5197 14.9734 25.4156C14.8645 25.3115 14.7359 25.2302 14.5951 25.1766C14.4543 25.123 14.3042 25.0981 14.1537 25.1035C14.0031 25.0981 13.853 25.123 13.7123 25.1766C13.5715 25.2302 13.4429 25.3115 13.334 25.4156C13.2252 25.5197 13.1383 25.6446 13.0784 25.7829C13.0186 25.9211 12.9871 26.07 12.9858 26.2206C12.9869 26.3714 13.0183 26.5204 13.078 26.6588C13.1377 26.7972 13.2246 26.9223 13.3335 27.0266C13.4423 27.1309 13.571 27.2123 13.7119 27.266C13.8528 27.3197 14.003 27.3446 14.1537 27.3393Z" fill="white"/>
  <g filter="url(#filter1_d_1766_6398)">
    <path d="M38.6125 40.7766H142.477C143.497 40.7766 144.475 41.1819 145.197 41.9033C145.918 42.6247 146.324 43.6032 146.324 44.6234V63.8575C146.324 64.8777 145.918 65.8562 145.197 66.5776C144.475 67.299 143.497 67.7043 142.477 67.7043H38.6125C37.5922 67.7043 36.6138 67.299 35.8923 66.5776C35.1709 65.8562 34.7656 64.8777 34.7656 63.8575V44.6234C34.7656 43.6032 35.1709 42.6247 35.8923 41.9033C36.6138 41.1819 37.5922 40.7766 38.6125 40.7766V40.7766Z" fill="white"/>
  </g>
  <path d="M87.8507 46.9314H67.8472C66.5724 46.9314 65.5391 47.9648 65.5391 49.2395C65.5391 50.5142 66.5724 51.5476 67.8472 51.5476H87.8507C89.1254 51.5476 90.1587 50.5142 90.1587 49.2395C90.1587 47.9648 89.1254 46.9314 87.8507 46.9314Z" fill="#D0D5DD"/>
  <path d="M101.699 56.9329H67.8472C66.5724 56.9329 65.5391 57.9662 65.5391 59.2409C65.5391 60.5157 66.5724 61.549 67.8472 61.549H101.699C102.974 61.549 104.007 60.5157 104.007 59.2409C104.007 57.9662 102.974 56.9329 101.699 56.9329Z" fill="#EAECF0"/>
  <path d="M55.539 43.0852H40.921C38.7965 43.0852 37.0742 44.8075 37.0742 46.932V61.5499C37.0742 63.6744 38.7965 65.3967 40.921 65.3967H55.539C57.6635 65.3967 59.3858 63.6744 59.3858 61.5499V46.932C59.3858 44.8075 57.6635 43.0852 55.539 43.0852Z" fill="#98A2B3"/>
  <path d="M46.478 56.7647H48.0167L48.0336 56.1723C48.0336 55.3937 48.5245 55.1906 49.2184 54.9706C49.9146 54.7725 50.5273 54.3533 50.964 53.7761C51.4007 53.1989 51.6376 52.4953 51.6389 51.7716C51.6541 51.3297 51.5774 50.8894 51.4137 50.4787C51.25 50.068 51.0028 49.6957 50.6878 49.3855C50.3728 49.0752 49.9968 48.8338 49.5836 48.6763C49.1705 48.5189 48.7291 48.449 48.2875 48.471C47.8208 48.4608 47.3569 48.5455 46.924 48.72C46.491 48.8945 46.098 49.1551 45.7688 49.4861C45.4396 49.817 45.181 50.2114 45.0088 50.6452C44.8366 51.0791 44.7543 51.5434 44.7669 52.0101H46.3579C46.3519 51.7524 46.3973 51.4962 46.4916 51.2563C46.5859 51.0164 46.7271 50.7978 46.9069 50.6132C47.0868 50.4287 47.3017 50.2818 47.539 50.1814C47.7763 50.0809 48.0313 50.0288 48.289 50.0282C48.5214 50.0147 48.754 50.0514 48.971 50.1358C49.1879 50.2203 49.3842 50.3504 49.5464 50.5174C49.7085 50.6844 49.8329 50.8843 49.9109 51.1037C49.9889 51.323 50.0188 51.5566 49.9986 51.7885C49.9883 52.1638 49.8578 52.526 49.6262 52.8216C49.3946 53.1172 49.0742 53.3305 48.7122 53.4303L48.1536 53.6519C47.6068 53.7836 47.1293 54.116 46.8159 54.583C46.5024 55.0501 46.3758 55.6178 46.461 56.1738L46.478 56.7647ZM47.2396 60.4223C47.3903 60.4276 47.5405 60.4027 47.6814 60.349C47.8223 60.2953 47.951 60.2139 48.0598 60.1096C48.1687 60.0053 48.2556 59.8803 48.3153 59.7418C48.375 59.6034 48.4064 59.4544 48.4075 59.3036C48.4062 59.153 48.3747 59.0041 48.3149 58.8659C48.2551 58.7276 48.1682 58.6027 48.0593 58.4986C47.9504 58.3945 47.8218 58.3132 47.681 58.2596C47.5403 58.206 47.3902 58.1811 47.2396 58.1865C47.0891 58.1811 46.939 58.206 46.7982 58.2596C46.6574 58.3132 46.5288 58.3945 46.4199 58.4986C46.3111 58.6027 46.2242 58.7276 46.1644 58.8659C46.1046 59.0041 46.0731 59.153 46.0717 59.3036C46.0729 59.4544 46.1042 59.6034 46.1639 59.7418C46.2237 59.8803 46.3105 60.0053 46.4194 60.1096C46.5283 60.2139 46.657 60.2953 46.7978 60.349C46.9387 60.4027 47.0889 60.4276 47.2396 60.4223Z" fill="white"/>
  <g filter="url(#filter2_d_1766_6398)">
    <path d="M5.52261 73.8584H109.387C110.407 73.8584 111.386 74.2637 112.107 74.9851C112.828 75.7065 113.234 76.685 113.234 77.7052V96.9393C113.234 97.9595 112.828 98.9379 112.107 99.6594C111.386 100.381 110.407 100.786 109.387 100.786H5.52261C4.50237 100.786 3.52391 100.381 2.80249 99.6594C2.08107 98.9379 1.67578 97.9595 1.67578 96.9393L1.67578 77.7052C1.67578 76.685 2.08107 75.7065 2.80249 74.9851C3.52391 74.2637 4.50237 73.8584 5.52261 73.8584V73.8584Z" fill="white"/>
  </g>
  <path d="M54.7647 80.0134H34.7612C33.4865 80.0134 32.4531 81.0468 32.4531 82.3215C32.4531 83.5962 33.4865 84.6296 34.7612 84.6296H54.7647C56.0394 84.6296 57.0728 83.5962 57.0728 82.3215C57.0728 81.0468 56.0394 80.0134 54.7647 80.0134Z" fill="#D0D5DD"/>
  <path d="M68.6133 90.0149H34.7612C33.4865 90.0149 32.4531 91.0483 32.4531 92.323C32.4531 93.5977 33.4865 94.6311 34.7612 94.6311H68.6133C69.888 94.6311 70.9214 93.5977 70.9214 92.323C70.9214 91.0483 69.888 90.0149 68.6133 90.0149Z" fill="#EAECF0"/>
  <path d="M22.4491 76.1675H7.8312C5.70666 76.1675 3.98438 77.8898 3.98438 80.0143V94.6322C3.98438 96.7567 5.70666 98.479 7.8312 98.479H22.4491C24.5737 98.479 26.296 96.7567 26.296 94.6322V80.0143C26.296 77.8898 24.5737 76.1675 22.4491 76.1675Z" fill="#98A2B3"/>
  <path d="M13.3881 89.847H14.9268L14.9438 89.2546C14.9438 88.476 15.4346 88.2729 16.1286 88.0528C16.8247 87.8548 17.4374 87.4355 17.8741 86.8584C18.3108 86.2812 18.5477 85.5776 18.549 84.8538C18.5643 84.4119 18.4876 83.9717 18.3239 83.561C18.1602 83.1503 17.913 82.778 17.598 82.4678C17.283 82.1575 16.907 81.916 16.4938 81.7586C16.0806 81.6012 15.6393 81.5313 15.1977 81.5533C14.731 81.5431 14.2671 81.6278 13.8341 81.8023C13.4012 81.9768 13.0082 82.2374 12.6789 82.5684C12.3497 82.8993 12.0912 83.2937 11.919 83.7275C11.7467 84.1614 11.6644 84.6257 11.677 85.0923H13.2681C13.262 84.8347 13.3075 84.5784 13.4018 84.3386C13.496 84.0987 13.6372 83.8801 13.8171 83.6955C13.9969 83.5109 14.2118 83.3641 14.4492 83.2636C14.6865 83.1632 14.9415 83.1111 15.1992 83.1105C15.4316 83.097 15.6642 83.1337 15.8811 83.2181C16.0981 83.3025 16.2943 83.4327 16.4565 83.5997C16.6187 83.7667 16.743 83.9666 16.8211 84.186C16.8991 84.4053 16.929 84.6388 16.9087 84.8708C16.8985 85.2461 16.7679 85.6083 16.5364 85.9039C16.3048 86.1994 15.9844 86.4128 15.6223 86.5126L15.0638 86.7341C14.5169 86.8659 14.0395 87.1982 13.726 87.6653C13.4126 88.1324 13.2859 88.7001 13.3712 89.2561L13.3881 89.847ZM14.1498 93.5045C14.3005 93.5099 14.4507 93.485 14.5916 93.4313C14.7324 93.3776 14.8611 93.2962 14.97 93.1919C15.0789 93.0876 15.1657 92.9625 15.2255 92.8241C15.2852 92.6857 15.3165 92.5366 15.3177 92.3859C15.3163 92.2352 15.2848 92.0864 15.225 91.9481C15.1652 91.8099 15.0783 91.685 14.9695 91.5809C14.8606 91.4768 14.732 91.3955 14.5912 91.3419C14.4504 91.2883 14.3003 91.2634 14.1498 91.2688C13.9992 91.2634 13.8491 91.2883 13.7084 91.3419C13.5676 91.3955 13.439 91.4768 13.3301 91.5809C13.2212 91.685 13.1343 91.8099 13.0745 91.9481C13.0147 92.0864 12.9832 92.2352 12.9819 92.3859C12.983 92.5366 13.0144 92.6857 13.0741 92.8241C13.1338 92.9625 13.2207 93.0876 13.3296 93.1919C13.4384 93.2962 13.5671 93.3776 13.708 93.4313C13.8489 93.485 13.9991 93.5099 14.1498 93.5045Z" fill="white"/>
  <defs>
    <filter id="filter0_d_1766_6398" x="0.395779" y="6.41336" width="117.959" height="33.3277" filterUnits="userSpaceOnUse" color-interpolation-filters="sRGB">
      <feFlood flood-opacity="0" result="BackgroundImageFix"/>
      <feColorMatrix in="SourceAlpha" type="matrix" values="0 0 0 0 0 0 0 0 0 0 0 0 0 0 0 0 0 0 127 0" result="hardAlpha"/>
      <feOffset dx="1.92" dy="1.92"/>
      <feGaussianBlur stdDeviation="1.6"/>
      <feColorMatrix type="matrix" values="0 0 0 0 0.230539 0 0 0 0 0.370572 0 0 0 0 0.482993 0 0 0 0.1 0"/>
      <feBlend mode="normal" in2="BackgroundImageFix" result="effect1_dropShadow_1766_6398"/>
      <feBlend mode="normal" in="SourceGraphic" in2="effect1_dropShadow_1766_6398" result="shape"/>
    </filter>
    <filter id="filter1_d_1766_6398" x="33.4856" y="39.4966" width="117.959" height="33.3277" filterUnits="userSpaceOnUse" color-interpolation-filters="sRGB">
      <feFlood flood-opacity="0" result="BackgroundImageFix"/>
      <feColorMatrix in="SourceAlpha" type="matrix" values="0 0 0 0 0 0 0 0 0 0 0 0 0 0 0 0 0 0 127 0" result="hardAlpha"/>
      <feOffset dx="1.92" dy="1.92"/>
      <feGaussianBlur stdDeviation="1.6"/>
      <feColorMatrix type="matrix" values="0 0 0 0 0.230539 0 0 0 0 0.370572 0 0 0 0 0.482993 0 0 0 0.1 0"/>
      <feBlend mode="normal" in2="BackgroundImageFix" result="effect1_dropShadow_1766_6398"/>
      <feBlend mode="normal" in="SourceGraphic" in2="effect1_dropShadow_1766_6398" result="shape"/>
    </filter>
    <filter id="filter2_d_1766_6398" x="0.395779" y="72.5784" width="117.959" height="33.3277" filterUnits="userSpaceOnUse" color-interpolation-filters="sRGB">
      <feFlood flood-opacity="0" result="BackgroundImageFix"/>
      <feColorMatrix in="SourceAlpha" type="matrix" values="0 0 0 0 0 0 0 0 0 0 0 0 0 0 0 0 0 0 127 0" result="hardAlpha"/>
      <feOffset dx="1.92" dy="1.92"/>
      <feGaussianBlur stdDeviation="1.6"/>
      <feColorMatrix type="matrix" values="0 0 0 0 0.230539 0 0 0 0 0.370572 0 0 0 0 0.482993 0 0 0 0.1 0"/>
      <feBlend mode="normal" in2="BackgroundImageFix" result="effect1_dropShadow_1766_6398"/>
      <feBlend mode="normal" in="SourceGraphic" in2="effect1_dropShadow_1766_6398" result="shape"/>
    </filter>
  </defs>
</svg>