<svg width="56" height="56" viewBox="0 0 56 56" fill="none" xmlns="http://www.w3.org/2000/svg">
<path opacity="0.4" d="M47.4805 23.852H40.8576C35.4263 23.852 31.0034 19.4291 31.0034 13.9978V7.37492C31.0034 6.1145 29.9721 5.08325 28.7117 5.08325H18.9951C11.9367 5.08325 6.23047 9.66659 6.23047 17.8478V38.152C6.23047 46.3333 11.9367 50.9166 18.9951 50.9166H37.0076C44.0659 50.9166 49.7721 46.3333 49.7721 38.152V26.1437C49.7721 24.8833 48.7409 23.852 47.4805 23.852Z" fill="#FF0800"/>
<path d="M36.7073 5.56447C35.7677 4.62488 34.1406 5.26655 34.1406 6.5728V14.5707C34.1406 17.9165 36.9823 20.6895 40.4427 20.6895C42.6198 20.7124 45.6448 20.7124 48.2344 20.7124C49.5406 20.7124 50.2281 19.177 49.3115 18.2603C46.0115 14.9374 40.099 8.95613 36.7073 5.56447Z" fill="#FF0800"/>
<path d="M26.9224 29.077L22.3391 24.4937C22.3161 24.4708 22.2932 24.4708 22.2932 24.4478C22.1557 24.3103 21.9724 24.1958 21.7891 24.1041C21.7661 24.1041 21.7661 24.1041 21.7432 24.1041C21.5599 24.0353 21.3766 24.0124 21.1932 23.9895C21.1245 23.9895 21.0786 23.9895 21.0099 23.9895C20.8724 23.9895 20.712 24.0353 20.5745 24.0812C20.5057 24.1041 20.4599 24.127 20.4141 24.1499C20.2307 24.2416 20.0474 24.3333 19.9099 24.4937L15.3266 29.077C14.662 29.7416 14.662 30.8416 15.3266 31.5062C15.9911 32.1708 17.0911 32.1708 17.7557 31.5062L19.4057 29.8562V39.4583C19.4057 40.3978 20.1849 41.177 21.1245 41.177C22.0641 41.177 22.8432 40.3978 22.8432 39.4583V29.8562L24.4932 31.5062C24.837 31.8499 25.2724 32.0103 25.7078 32.0103C26.1432 32.0103 26.5786 31.8499 26.9224 31.5062C27.587 30.8416 27.587 29.7416 26.9224 29.077Z" fill="#FF0800"/>
</svg>
